<svg width="32" height="32" viewBox="0 0 32 32" fill="none" xmlns="http://www.w3.org/2000/svg">
<path fill-rule="evenodd" clip-rule="evenodd" d="M16.0032 2.80981L2.91306 11.5836L8.36144 15.1215L14.8711 10.7344L12.289 9.03829L15.8259 6.66862L23.5008 11.7617L10.9096 20.2148L13.633 22.0185L29.3012 11.5849L29.2658 11.5496L16.0032 2.80981V2.80981ZM29.0569 2.81347L23.6104 6.4211L26.3337 8.26019L29.0569 6.4211V2.81347ZM2.82324 29.1904L8.26996 25.583L5.54669 23.7437L2.82324 25.583V29.1904V29.1904Z" fill="#EEEEEE"/>
<path fill-rule="evenodd" clip-rule="evenodd" d="M15.9971 29.183L29.0871 20.409L23.6389 16.8711L17.1293 21.2582L19.7112 22.9543L16.1744 25.3242L8.49947 20.2309L21.0906 11.778L18.3673 9.97412L2.69897 20.4077L2.73434 20.4434L15.9971 29.183V29.183Z" fill="#EEEEEE"/>
</svg>
