<svg width="32" height="17" viewBox="0 0 32 17" fill="none" xmlns="http://www.w3.org/2000/svg">
<path d="M0.99841 13.5048C0.855339 13.2739 0.664578 12.9049 0.546754 12.6317C-0.140549 11.0319 -0.171407 9.37582 0.406488 7.7873C1.0433 6.04388 2.2608 4.71167 3.83459 4.03007C5.81234 3.17666 7.99768 3.34284 9.89408 4.47226C11.0976 5.16513 11.9504 6.2354 12.5984 7.75069C12.6798 7.94503 12.7527 8.15064 12.8256 8.32808L0.99841 13.5048ZM4.9483 6.60155C3.54284 7.2071 2.81906 8.53087 2.97055 10.08L8.91783 7.50847C7.89389 6.303 6.56417 5.90305 4.9483 6.60155ZM9.65843 12.1952C9.65563 12.1952 9.65563 12.198 9.65563 12.198L9.53219 12.1135C9.17592 12.6909 8.62327 13.1612 7.92475 13.4654C6.59502 14.0456 5.36349 13.8963 4.47701 13.1162L4.39565 13.2401C4.39565 13.2401 4.39565 13.2373 4.39285 13.2373L2.88358 15.5046C3.2595 15.7665 3.66066 15.9862 4.08146 16.1636C5.74782 16.8593 7.45345 16.8255 9.13384 16.0932C10.3485 15.5637 11.3023 14.7582 11.9532 13.7358L9.65843 12.1952ZM16.9579 0.695312V13.2964L18.9104 14.0907L17.8023 16.6875L15.6478 15.7862C15.1653 15.575 14.8342 15.2539 14.5874 14.8906C14.3489 14.5216 14.1722 14.0118 14.1722 13.3302V0.695312H16.9579ZM22.0131 10.0884C22.0131 9.01531 22.4872 8.05206 23.2334 7.39862L21.2304 5.15668C19.8726 6.36215 19.017 8.12247 19.017 10.0828C19.0142 12.0459 19.8698 13.809 21.2248 15.0145L23.225 12.7725C22.4816 12.1163 22.0131 11.1587 22.0131 10.0884ZM25.5702 13.6626C25.1775 13.6626 24.7959 13.595 24.4425 13.4767L23.4859 16.3298C24.1395 16.5495 24.838 16.6706 25.5674 16.6706C28.7374 16.6734 31.3828 14.4146 31.9972 11.415L29.0572 10.8122C28.7234 12.443 27.2899 13.6654 25.5702 13.6626ZM25.5786 3.5062C24.852 3.5062 24.1535 3.62449 23.4999 3.84136L24.4481 6.69731C24.8044 6.57902 25.1831 6.51424 25.5758 6.51424C27.2983 6.51705 28.7346 7.74506 29.06 9.37864L32 8.78153C31.3969 5.77631 28.7514 3.50901 25.5786 3.5062Z" fill="#EEEEEE"/>
</svg>
